<?xml version="1.0" encoding="utf-8"?>
<!-- Generator: Adobe Illustrator 17.1.0, SVG Export Plug-In . SVG Version: 6.00 Build 0)  -->
<!DOCTYPE svg PUBLIC "-//W3C//DTD SVG 1.1//EN" "http://www.w3.org/Graphics/SVG/1.1/DTD/svg11.dtd">
<svg version="1.1" id="Layer_1" xmlns="http://www.w3.org/2000/svg" xmlns:xlink="http://www.w3.org/1999/xlink" x="0px" y="0px"
	 viewBox="0 0 198 147" enable-background="new 0 0 198 147" xml:space="preserve">
<text transform="matrix(0.9986 0 0 1 -605.3839 131.1894)" font-family="'Averta-Regular'" font-size="62.6189">Social Eminence</text>
<path d="M-657.4,76.7c0,0,57.6,7.9,35.1,30.5c-22.5,22.5-4,23.8-35.1,23.8c-31.1,0-39.7-2-39.7-27.2s-11.3-27.2,7.9-33.1
	s20.5,0,23.2,0C-663.3,70.8-657.4,76.7-657.4,76.7z"/>
<path fill="#4882BC" d="M-652.1,61.1c0,0-23.8,16.6-24.5,23.2c-0.7,6.6-3.1,5.9,7.3,16.3c10.4,10.4,11.9,11.5,17.2,7.5
	c5.3-4,15.2-37.6,11.9-39C-643.5,67.7-652.1,61.1-652.1,61.1z"/>
<linearGradient id="SVGID_1_" gradientUnits="userSpaceOnUse" x1="0" y1="73.5" x2="198" y2="73.5">
	<stop  offset="0" style="stop-color:#C1272D"/>
	<stop  offset="1" style="stop-color:#D9E021"/>
</linearGradient>
<rect fill="url(#SVGID_1_)" width="198" height="147"/>
</svg>
