<?xml version="1.0" encoding="utf-8"?>
<!-- Generator: Adobe Illustrator 17.1.0, SVG Export Plug-In . SVG Version: 6.00 Build 0)  -->
<!DOCTYPE svg PUBLIC "-//W3C//DTD SVG 1.1//EN" "http://www.w3.org/Graphics/SVG/1.1/DTD/svg11.dtd">
<svg version="1.1" id="Layer_1" xmlns="http://www.w3.org/2000/svg" xmlns:xlink="http://www.w3.org/1999/xlink" x="0px" y="0px"
	 viewBox="0 0 571.1 86.2" enable-background="new 0 0 571.1 86.2" xml:space="preserve">
<g>
	<path d="M97.8,63.6l3.5-4.2c1.6,1.9,3.5,3.4,5.6,4.4c2.2,1,4.4,1.5,6.7,1.5c2.7,0,5-0.6,6.6-1.8c1.7-1.2,2.5-2.9,2.5-5
		c0-0.9-0.2-1.8-0.5-2.6c-0.3-0.8-0.7-1.4-1.1-1.9c-0.4-0.5-1.1-1-2.1-1.5c-1-0.5-1.8-0.9-2.5-1.2c-0.7-0.3-1.7-0.7-3.2-1.2
		c-0.3-0.1-0.5-0.2-0.6-0.2c-1.1-0.4-2.1-0.8-2.8-1.1c-0.8-0.3-1.6-0.7-2.7-1.2c-1-0.5-1.8-1-2.5-1.4c-0.7-0.5-1.4-1-2.1-1.7
		c-0.7-0.7-1.3-1.4-1.7-2.1c-0.4-0.7-0.8-1.5-1-2.5s-0.4-2-0.4-3c0-2.2,0.6-4.2,1.8-5.9c1.2-1.8,2.8-3.2,4.9-4.2
		c2.1-1,4.4-1.5,6.9-1.5h0.2c2.4,0,4.7,0.4,7.1,1.3c2.4,0.9,4.7,2.2,6.8,3.8l-3.2,4.2c-1.7-1.4-3.5-2.5-5.4-3.2
		c-1.9-0.7-3.7-1.1-5.4-1.1c-1.4,0-2.7,0.2-3.9,0.7c-1.2,0.5-2.1,1.2-2.9,2.2c-0.8,1-1.1,2.2-1.1,3.5c0,0.8,0.2,1.6,0.5,2.2
		c0.3,0.7,0.7,1.3,1.1,1.7c0.4,0.5,1.1,0.9,2.1,1.5c1,0.5,1.8,0.9,2.5,1.2c0.7,0.3,1.7,0.7,3.1,1.2c0.1,0,0.1,0.1,0.2,0.1
		c0.2,0.1,0.5,0.2,1,0.4c1.3,0.5,2.3,0.9,3,1.2c0.6,0.3,1.5,0.7,2.6,1.2c1.1,0.5,1.9,1,2.4,1.4s1.2,0.9,1.9,1.6
		c0.7,0.7,1.2,1.3,1.6,2c0.3,0.7,0.6,1.5,0.9,2.5c0.3,0.9,0.4,2,0.4,3.1c0,1.6-0.3,3.1-0.8,4.5c-0.5,1.4-1.3,2.6-2.2,3.5
		c-0.9,1-2,1.8-3.3,2.5c-1.2,0.7-2.6,1.2-4,1.6c-1.4,0.3-2.9,0.5-4.5,0.5c-2.9,0-5.7-0.6-8.4-1.7C102.3,67.6,99.9,65.9,97.8,63.6z"
		/>
	<path d="M134.5,54.9c0-2.2,0.4-4.2,1.1-6.2s1.8-3.6,3.2-5c1.3-1.4,3-2.5,5-3.3c2-0.8,4.1-1.2,6.4-1.2c3,0,5.6,0.7,8,2
		c2.4,1.3,4.2,3.2,5.6,5.5c1.3,2.4,2,5.1,2,8.1c0,3-0.7,5.7-2,8.1c-1.3,2.4-3.2,4.2-5.6,5.5c-2.4,1.3-5,2-8,2
		c-2.3,0-4.5-0.4-6.4-1.2c-2-0.8-3.6-1.9-5-3.3c-1.3-1.4-2.4-3-3.2-5S134.5,57.1,134.5,54.9z M139.5,54.9c0,2,0.4,3.8,1.3,5.5
		c0.9,1.7,2.1,3,3.8,4c1.6,1,3.5,1.5,5.5,1.5c1.9,0,3.7-0.5,5.3-1.4c1.6-0.9,2.9-2.2,3.8-3.9c0.9-1.7,1.4-3.6,1.4-5.7
		c0-2.1-0.5-4-1.4-5.7c-0.9-1.7-2.2-3-3.8-3.9c-1.6-0.9-3.4-1.4-5.3-1.4c-2.1,0-3.9,0.5-5.6,1.5c-1.6,1-2.9,2.3-3.8,4
		C140,51,139.5,52.9,139.5,54.9z"/>
	<path d="M171.8,54.9c0-3,0.6-5.7,1.9-8.1c1.3-2.4,3.1-4.2,5.4-5.6c2.3-1.3,4.9-2,7.9-2c2.3,0,4.6,0.5,6.8,1.4c2.2,0.9,4,2.3,5.5,4
		l-3.5,3.1c-1-1.2-2.2-2.1-3.7-2.8c-1.5-0.7-3.1-1-4.8-1c-3.1,0-5.5,1-7.5,3.1c-1.9,2-2.9,4.7-2.9,7.9c0,3.2,1,5.9,2.9,7.9
		c1.9,2,4.4,3.1,7.5,3.1c1.7,0,3.4-0.3,4.9-1c1.5-0.7,2.8-1.5,3.8-2.7l3.5,3.2c-1.4,1.5-3.2,2.8-5.4,3.7c-2.2,1-4.6,1.4-7.2,1.4
		c-2.9,0-5.5-0.7-7.8-2c-2.3-1.3-4.1-3.1-5.3-5.5C172.4,60.7,171.8,58,171.8,54.9z"/>
	<path d="M205.8,30.4c0-1,0.3-1.8,1-2.5c0.7-0.7,1.6-1,2.6-1c1,0,1.8,0.3,2.5,1c0.7,0.7,1,1.5,1,2.5c0,1-0.3,1.8-1,2.5
		c-0.7,0.7-1.5,1-2.5,1c-1,0-1.9-0.3-2.6-1C206.1,32.2,205.8,31.4,205.8,30.4z M206.8,70.1V39.6h5.1v30.5H206.8z"/>
	<path d="M220.1,55.1c0-3,0.6-5.7,1.9-8.1c1.3-2.4,3.1-4.3,5.3-5.7s4.8-2.1,7.7-2.1c2.1,0,4,0.4,5.8,1.3c1.8,0.8,3.3,2,4.6,3.6h0.1
		v-4.5h5.1v30.5h-4.9v-4.8h-0.1c-1.2,1.7-2.8,2.9-4.6,3.9c-1.8,0.9-3.8,1.4-6.1,1.4c-2.1,0-4-0.4-5.9-1.1c-1.8-0.7-3.4-1.8-4.8-3.1
		c-1.3-1.3-2.4-3-3.2-4.9C220.5,59.5,220.1,57.3,220.1,55.1z M225.3,55.1c0,3.1,0.9,5.7,2.8,7.7c1.9,2,4.4,3,7.4,3
		c1.4,0,2.7-0.3,3.9-0.8c1.2-0.5,2.3-1.2,3.3-2.2c0.9-0.9,1.7-2.1,2.2-3.4c0.5-1.4,0.8-2.8,0.8-4.4c0-2.1-0.4-3.9-1.3-5.7
		c-0.9-1.7-2.1-3.1-3.6-4.1c-1.6-1-3.3-1.5-5.2-1.5c-2.9,0-5.4,1-7.4,3.1C226.3,49.1,225.3,51.8,225.3,55.1z"/>
	<path d="M260.4,70.1V24h5.1v46.1H260.4z"/>
	<path d="M293.6,70.1V25.6h27.2v5h-21.7v14.9h17.9v5h-17.9v14.6h23.1v5H293.6z"/>
	<path d="M330.2,70.1V39.6h5.1v5.2h0.1c1.2-1.8,2.8-3.1,4.5-4.1c1.8-1,3.7-1.5,5.7-1.5c4.8,0,8,2,9.6,5.9h0.1
		c1.2-1.9,2.8-3.4,4.7-4.4c1.9-1,4-1.5,6.3-1.5c3.5,0,6.2,1.1,8,3.2c1.8,2.1,2.7,5.4,2.7,9.8v17.9H372V53.6c0-3.4-0.6-5.8-1.7-7.4
		c-1.1-1.5-2.9-2.3-5.4-2.3c-2.4,0-4.5,1-6.1,3c-1.6,2-2.4,4.7-2.4,8v15.1h-5.1V53.6c0-3.3-0.6-5.8-1.8-7.3s-3-2.3-5.4-2.3
		c-2.5,0-4.6,1-6.3,3s-2.5,4.7-2.5,8.1v15.1H330.2z"/>
	<path d="M385.5,30.4c0-1,0.3-1.8,1-2.5c0.7-0.7,1.6-1,2.6-1c1,0,1.8,0.3,2.5,1c0.7,0.7,1,1.5,1,2.5c0,1-0.3,1.8-1,2.5
		c-0.7,0.7-1.5,1-2.5,1c-1,0-1.9-0.3-2.6-1C385.9,32.2,385.5,31.4,385.5,30.4z M386.6,70.1V39.6h5.1v30.5H386.6z"/>
	<path d="M401.7,70.1V39.6h5.1v5.3h0.1c1.3-1.8,2.8-3.2,4.8-4.2c1.9-1,4-1.5,6.3-1.5c3.4,0,6.1,1.1,8,3.2c1.9,2.1,2.9,5.3,2.9,9.6
		v18.1h-5.1V53.4c0-1.8-0.2-3.3-0.5-4.5c-0.4-1.2-0.9-2.2-1.5-3c-0.7-0.7-1.4-1.3-2.3-1.6s-1.9-0.5-3.1-0.5c-2.9,0-5.2,1-6.9,3
		c-1.7,2-2.6,4.6-2.6,8v15.2H401.7z"/>
	<path d="M436.1,54.9c0-2.3,0.4-4.4,1.1-6.3c0.8-1.9,1.8-3.6,3.1-5c1.3-1.4,2.8-2.4,4.6-3.2c1.8-0.8,3.7-1.2,5.7-1.2
		c2.8,0,5.3,0.7,7.4,2c2.2,1.3,3.8,3.1,5,5.4c1.2,2.3,1.8,4.9,1.8,7.8c0,0.8-0.1,1.5-0.2,2.1h-23.4c0.3,2.8,1.4,5.1,3.3,6.8
		c1.9,1.7,4.1,2.6,6.9,2.6c1.8,0,3.4-0.4,4.9-1.1c1.4-0.7,2.7-1.7,3.7-3l3.5,3c-1.4,1.8-3.1,3.2-5.2,4.2c-2.1,1-4.5,1.5-7.1,1.5
		c-2.1,0-4.1-0.4-6-1.1c-1.9-0.8-3.5-1.8-4.8-3.2c-1.3-1.3-2.4-3-3.2-5C436.5,59.3,436.1,57.2,436.1,54.9z M441.4,52.3h18.4
		c-0.4-2.5-1.4-4.6-2.9-6.1s-3.5-2.3-5.9-2.3c-2.4,0-4.5,0.8-6.2,2.3S441.9,49.7,441.4,52.3z"/>
	<path d="M472.5,70.1V39.6h5.1v5.3h0.1c1.3-1.8,2.8-3.2,4.8-4.2c1.9-1,4-1.5,6.3-1.5c3.4,0,6.1,1.1,8,3.2c1.9,2.1,2.9,5.3,2.9,9.6
		v18.1h-5.1V53.4c0-1.8-0.2-3.3-0.5-4.5c-0.4-1.2-0.9-2.2-1.5-3c-0.7-0.7-1.4-1.3-2.3-1.6s-1.9-0.5-3.1-0.5c-2.9,0-5.2,1-6.9,3
		c-1.7,2-2.6,4.6-2.6,8v15.2H472.5z"/>
	<path d="M506.9,54.9c0-3,0.6-5.7,1.9-8.1s3.1-4.2,5.4-5.6c2.3-1.3,4.9-2,7.9-2c2.3,0,4.6,0.5,6.8,1.4c2.2,0.9,4,2.3,5.5,4l-3.5,3.1
		c-1-1.2-2.2-2.1-3.7-2.8c-1.5-0.7-3.1-1-4.8-1c-3.1,0-5.5,1-7.5,3.1c-1.9,2-2.9,4.7-2.9,7.9c0,3.2,1,5.9,2.9,7.9
		c1.9,2,4.4,3.1,7.5,3.1c1.7,0,3.4-0.3,4.9-1s2.8-1.5,3.8-2.7l3.5,3.2c-1.4,1.5-3.2,2.8-5.4,3.7c-2.2,1-4.6,1.4-7.2,1.4
		c-2.9,0-5.5-0.7-7.8-2c-2.3-1.3-4.1-3.1-5.3-5.5C507.5,60.7,506.9,58,506.9,54.9z"/>
	<path d="M539.6,54.9c0-2.3,0.4-4.4,1.1-6.3c0.8-1.9,1.8-3.6,3.1-5c1.3-1.4,2.8-2.4,4.6-3.2c1.8-0.8,3.7-1.2,5.7-1.2
		c2.8,0,5.3,0.7,7.4,2c2.2,1.3,3.8,3.1,5,5.4c1.2,2.3,1.8,4.9,1.8,7.8c0,0.8-0.1,1.5-0.2,2.1h-23.4c0.3,2.8,1.4,5.1,3.3,6.8
		c1.9,1.7,4.1,2.6,6.9,2.6c1.8,0,3.4-0.4,4.9-1.1c1.4-0.7,2.7-1.7,3.7-3l3.5,3c-1.4,1.8-3.1,3.2-5.2,4.2c-2.1,1-4.5,1.5-7.1,1.5
		c-2.1,0-4.1-0.4-6-1.1c-1.9-0.8-3.5-1.8-4.8-3.2c-1.3-1.3-2.4-3-3.2-5C539.9,59.3,539.6,57.2,539.6,54.9z M544.9,52.3h18.4
		c-0.4-2.5-1.4-4.6-2.9-6.1s-3.5-2.3-5.9-2.3c-2.4,0-4.5,0.8-6.2,2.3S545.3,49.7,544.9,52.3z"/>
</g>
<path d="M43,15.6c0,0,57.6,7.9,35.1,30.5s-4,23.8-35.1,23.8S3.3,68,3.3,42.8S-8,15.6,11.2,9.7s20.5,0,23.2,0S43,15.6,43,15.6z"/>
<path fill="#4882BC" d="M48.3,0c0,0-23.8,16.6-24.5,23.2s-3.1,5.9,7.3,16.3S43,51,48.3,47S63.5,9.4,60.2,8C56.9,6.6,48.3,0,48.3,0z"
	/>
</svg>
