<?xml version="1.0" encoding="utf-8"?>
<!-- Generator: Adobe Illustrator 17.1.0, SVG Export Plug-In . SVG Version: 6.00 Build 0)  -->
<!DOCTYPE svg PUBLIC "-//W3C//DTD SVG 1.1//EN" "http://www.w3.org/Graphics/SVG/1.1/DTD/svg11.dtd">
<svg version="1.1" id="Layer_1" xmlns="http://www.w3.org/2000/svg" xmlns:xlink="http://www.w3.org/1999/xlink" x="0px" y="0px"
	 viewBox="0 0 571.1 86.2" enable-background="new 0 0 571.1 86.2" xml:space="preserve">
<text transform="matrix(0.9986 0 0 1 94.9879 70.1099)" font-family="'Averta-Regular'" font-size="62.6189">Social Eminence</text>
<path d="M43,15.6c0,0,57.6,7.9,35.1,30.5s-4,23.8-35.1,23.8S3.3,68,3.3,42.8S-8,15.6,11.2,9.7s20.5,0,23.2,0S43,15.6,43,15.6z"/>
<path fill="#4882BC" d="M48.3,0c0,0-23.8,16.6-24.5,23.2s-3.1,5.9,7.3,16.3S43,51,48.3,47S63.5,9.4,60.2,8C56.9,6.6,48.3,0,48.3,0z"
	/>
</svg>
